<svg width="12" height="14" viewBox="0 0 12 14" fill="none" xmlns="http://www.w3.org/2000/svg">
<path d="M6.00033 0.667969C9.22208 0.667969 11.8337 3.27955 11.8337 6.5013C11.8337 9.72305 9.22208 12.3346 6.00033 12.3346C2.77858 12.3346 0.166992 9.72305 0.166992 6.5013C0.166992 3.27955 2.77858 0.667969 6.00033 0.667969ZM6.00033 3.0013C5.84562 3.0013 5.69724 3.06276 5.58785 3.17216C5.47845 3.28155 5.41699 3.42993 5.41699 3.58464V6.5013C5.41703 6.656 5.47851 6.80435 5.58791 6.91372L7.33791 8.66372C7.44793 8.76998 7.59528 8.82877 7.74823 8.82745C7.90117 8.82612 8.04748 8.76477 8.15564 8.65661C8.26379 8.54846 8.32514 8.40215 8.32647 8.2492C8.3278 8.09625 8.269 7.9489 8.16274 7.83889L6.58366 6.2598V3.58464C6.58366 3.42993 6.5222 3.28155 6.4128 3.17216C6.30341 3.06276 6.15504 3.0013 6.00033 3.0013Z" fill="white"/>
</svg>
